<svg width="256" height="256" viewBox="0 0 256 256" fill="none" xmlns="http://www.w3.org/2000/svg">
<ellipse cx="127.997" cy="127.999" rx="53.3332" ry="52.8305" fill="#727272"/>
<g clip-path="url(#clip0_20_54)">
<rect x="119.465" y="16" width="17.0666" height="42.2644" fill="#727272"/>
</g>
<g clip-path="url(#clip1_20_54)">
<rect width="16.9864" height="42.466" transform="matrix(-0.710449 -0.703748 0.710449 -0.703748 184.867 87.4238)" fill="#727272"/>
</g>
<g clip-path="url(#clip2_20_54)">
<rect width="16.9864" height="42.466" transform="matrix(-0.710449 -0.703748 0.710449 -0.703748 52.6016 211.048)" fill="#727272"/>
</g>
<g clip-path="url(#clip3_20_54)">
<rect width="16.9864" height="42.466" transform="matrix(0.710447 -0.70375 0.710447 0.70375 40.5312 54.3691)" fill="#727272"/>
</g>
<g clip-path="url(#clip4_20_54)">
<rect width="16.9864" height="42.466" transform="matrix(0.710449 -0.703748 0.710449 0.703748 172.801 181.162)" fill="#727272"/>
</g>
<g clip-path="url(#clip5_20_54)">
<rect x="119.465" y="197.735" width="17.0666" height="42.2644" fill="#727272"/>
</g>
<g clip-path="url(#clip6_20_54)">
<rect x="197.332" y="135.397" width="16.9058" height="42.6666" transform="rotate(-90 197.332 135.397)" fill="#727272"/>
</g>
<g clip-path="url(#clip7_20_54)">
<rect x="16" y="136.453" width="16.9058" height="42.6666" transform="rotate(-90 16 136.453)" fill="#727272"/>
</g>
<defs>
<clipPath id="clip0_20_54">
<path d="M119.465 24.5333C119.465 19.8205 123.285 16 127.998 16C132.711 16 136.531 19.8205 136.531 24.5333V49.7311C136.531 54.4439 132.711 58.2644 127.998 58.2644C123.285 58.2644 119.465 54.4439 119.465 49.7311V24.5333Z" fill="white"/>
</clipPath>
<clipPath id="clip1_20_54">
<path d="M190.901 81.4468C187.569 84.7478 182.166 84.7478 178.833 81.4468C175.501 78.1457 175.501 72.7937 178.833 69.4926L196.935 51.5614C200.268 48.2604 205.671 48.2604 209.003 51.5614C212.336 54.8625 212.336 60.2145 209.003 63.5155L190.901 81.4468Z" fill="white"/>
</clipPath>
<clipPath id="clip2_20_54">
<path d="M58.6356 205.071C55.3031 208.372 49.9001 208.372 46.5676 205.071C43.2351 201.77 43.2351 196.418 46.5676 193.117L64.6695 175.185C68.002 171.884 73.405 171.884 76.7375 175.185C80.07 178.486 80.07 183.839 76.7375 187.14L58.6356 205.071Z" fill="white"/>
</clipPath>
<clipPath id="clip3_20_54">
<path d="M46.5652 60.3462C43.2328 57.0452 43.2327 51.6931 46.5652 48.3921C49.8977 45.091 55.3007 45.091 58.6332 48.3921L76.735 66.3233C80.0675 69.6244 80.0675 74.9764 76.7351 78.2775C73.4026 81.5786 67.9996 81.5786 64.6671 78.2775L46.5652 60.3462Z" fill="white"/>
</clipPath>
<clipPath id="clip4_20_54">
<path d="M178.835 187.139C175.502 183.838 175.502 178.486 178.835 175.185C182.167 171.884 187.57 171.884 190.903 175.185L209.005 193.116C212.337 196.417 212.337 201.769 209.005 205.07C205.672 208.371 200.269 208.371 196.937 205.07L178.835 187.139Z" fill="white"/>
</clipPath>
<clipPath id="clip5_20_54">
<path d="M119.465 206.269C119.465 201.556 123.285 197.735 127.998 197.735C132.711 197.735 136.531 201.556 136.531 206.269V231.466C136.531 236.179 132.711 240 127.998 240C123.285 240 119.465 236.179 119.465 231.466V206.269Z" fill="white"/>
</clipPath>
<clipPath id="clip6_20_54">
<path d="M205.785 135.397C201.117 135.397 197.332 131.613 197.332 126.945C197.332 122.276 201.117 118.492 205.785 118.492H231.546C236.214 118.492 239.999 122.276 239.999 126.945C239.999 131.613 236.214 135.397 231.546 135.397H205.785Z" fill="white"/>
</clipPath>
<clipPath id="clip7_20_54">
<path d="M24.4529 136.453C19.7845 136.453 16 132.669 16 128C16 123.332 19.7845 119.547 24.4529 119.547L50.2137 119.547C54.8821 119.547 58.6666 123.332 58.6666 128C58.6666 132.669 54.8821 136.453 50.2137 136.453H24.4529Z" fill="white"/>
</clipPath>
</defs>
</svg>
